{"scene":0,"scenes":[{"nodes":[0]}],"asset":{"version":"2.0","generator":"https://github.com/mikedh/trimesh"},"accessors":[{"componentType":5125,"type":"SCALAR","bufferView":0,"count":9492,"max":[1661],"min":[0]},{"componentType":5126,"type":"VEC3","byteOffset":0,"bufferView":1,"count":1662,"max":[6.0,4.539999961853027,8.319999694824219],"min":[-1.5,-4.539999961853027,-12.520000457763672]},{"componentType":5121,"normalized":true,"type":"VEC4","byteOffset":0,"bufferView":2,"count":1662,"max":[255,155,128,255],"min":[30,30,0,200]}],"meshes":[{"name":"geometry_0","extras":{},"primitives":[{"attributes":{"POSITION":1,"COLOR_0":2},"indices":0,"mode":4}]}],"nodes":[{"name":"world","children":[1]},{"name":"geometry_0","mesh":0}],"buffers":[{"uri":"gltf_buffer_0.bin","byteLength":37968},{"uri":"gltf_buffer_1.bin","byteLength":19944},{"uri":"gltf_buffer_2.bin","byteLength":6648}],"bufferViews":[{"buffer":0,"byteOffset":0,"byteLength":37968},{"buffer":1,"byteOffset":0,"byteLength":19944},{"buffer":2,"byteOffset":0,"byteLength":6648}]}